<svg width="51" height="50" viewBox="0 0 51 50" fill="none" xmlns="http://www.w3.org/2000/svg">
<rect x="0.5" width="50" height="50" rx="25" fill="black"/>
<path d="M37.5003 38.6711L37.9667 36.0478C38.4468 33.3471 36.6614 30.7638 33.9653 30.2583L26.4218 28.8439C25.8128 28.7297 25.1879 28.7297 24.5789 28.8439L17.0353 30.2583C14.3392 30.7638 12.5538 33.3471 13.034 36.0478L13.5003 38.6711" stroke="white" stroke-width="3.33333"/>
<path d="M17.9987 15.7133C17.9987 12.0314 20.9835 9.04667 24.6654 9.04667H26.332C30.0139 9.04667 32.9987 12.0314 32.9987 15.7133V17.38C32.9987 21.0619 30.0139 24.0467 26.332 24.0467H24.6654C20.9835 24.0467 17.9987 21.0619 17.9987 17.38V15.7133Z" stroke="white" stroke-width="3.33333"/>
</svg>
