<svg width="369" height="48" viewBox="0 0 369 48" fill="none" xmlns="http://www.w3.org/2000/svg">
<path fill-rule="evenodd" clip-rule="evenodd" d="M91.1484 21.602V26.629C91.5935 26.5846 92.0383 26.5401 92.4388 26.451C98.5335 25.2055 99.1563 20.8903 100.001 15.0626L101.247 5.54252H106.274V26.3621H111.301V3.05131C111.301 1.62776 110.144 0.515568 108.765 0.515568H100.58C98.6666 0.515568 96.6204 1.89465 96.3533 4.03001C96.0865 6.2988 95.2857 13.0162 94.8855 15.8189C94.485 18.6215 94.1737 21.2017 91.1042 21.602H91.1484ZM50.0949 0.560151H60.8163V5.58706H50.7177V10.5696C50.7623 10.5251 50.8068 10.5251 50.896 10.4806L50.9402 10.4361C50.9848 10.4361 51.0291 10.3916 51.0736 10.3916H51.1182C51.1628 10.3916 51.2073 10.3471 51.2516 10.3471L51.2962 10.3026C51.3404 10.3026 51.3853 10.2581 51.4296 10.2581H51.5187L51.6521 10.2137L51.8301 10.1247L51.9635 10.0802L52.0523 10.0357L52.186 9.99124H52.2749L52.4083 9.94673H52.4974L52.6308 9.90225H52.72C52.7642 9.90225 52.8088 9.90222 52.8531 9.85774H52.8976C52.9422 9.85774 52.9868 9.85774 53.0756 9.81327H53.1202C53.1644 9.81327 53.2536 9.81327 53.2981 9.76879H53.3427C53.387 9.76879 53.4758 9.76882 53.5207 9.72431H54.6328C59.3483 9.72431 63.1296 13.5501 63.1296 18.2212C63.1296 22.9368 59.3037 26.7181 54.6328 26.7181H45.8242V4.96425C45.6911 2.56199 47.6928 0.560151 50.0949 0.560151ZM54.5436 14.4399C56.6344 14.4399 58.325 16.1303 58.325 18.2212C58.325 20.3121 56.6344 22.0025 54.5436 22.0025H50.7623V14.4399H54.5436ZM69.2204 4.91977V21.958C69.2204 24.3603 71.1777 26.3621 73.6245 26.3621H85.5025V21.3353H74.2475V15.6409H84.5238V10.614H74.2475V5.58706H85.1908V0.560153H73.6245C71.1777 0.560153 69.2204 2.562 69.2204 4.91977ZM159.212 17.8648V26.4062H164.239V0.248252H154.452C149.248 0.248252 145.021 4.47448 145.021 9.67937C145.021 13.2828 147.068 16.4413 150.048 18.0428L144.933 26.4062H150.849L155.342 19.1104C156.766 18.977 158.056 18.5766 159.212 17.8648ZM159.212 5.00833H154.452C151.872 5.00833 149.737 7.14366 149.737 9.72385C149.737 12.304 151.872 14.4394 154.452 14.4394H159.212V5.00833ZM136.221 26.4062H141.604L133.329 4.02961C131.461 -0.997339 126.345 -1.08631 124.476 4.02961L116.202 26.4062H121.585L123.097 22.3135H134.797L136.221 26.4062ZM124.788 17.5535L128.881 6.56536L132.973 17.5535H124.788ZM291.822 26.4067H296.847L308.371 9.05702V26.4067H313.441V0.560151H308.371L296.847 17.8653V0.560151H291.822V26.4067ZM214.195 4.91984V21.958C214.195 24.3603 216.152 26.3621 218.599 26.3621H230.475V21.3353H219.22V15.641H229.498V10.614H219.22V5.58712H230.165V0.560151H218.599C216.152 0.560151 214.195 2.51757 214.195 4.91984ZM262.638 26.4067H267.663V15.9969H279.186V26.4067H284.257V0.560151H279.186V10.9255H267.663V0.560151H262.638V26.4067ZM189.726 5.58712H196.887V26.4067H201.915V5.58712H209.122V0.560151H189.726V5.58712ZM246.616 8.87905L241.5 0.560153H235.851L243.77 13.4612L235.851 26.4067H241.5L246.616 18.0878L251.732 26.4067H257.427L249.465 13.4612L257.427 0.560153H251.732L246.616 8.87905ZM330.747 8.87905L329.498 10.9255H326.207V0.560153H321.18V26.4067H326.207V15.9969H329.498L330.747 18.0878L335.906 26.4067H341.556L333.592 13.4612L341.556 0.560151H335.906L330.747 8.87905ZM363.615 26.4062H369L360.724 4.02961C358.856 -0.997339 353.74 -1.08631 351.874 4.02961L343.599 26.4062H348.983L350.492 22.3135H362.196L363.615 26.4062ZM352.186 17.5089L356.276 6.52082L360.37 17.5089H352.186ZM312.995 45.9498V37.3781H314.564V43.464L319.168 37.3781H320.648V45.9498H319.082V39.8761L314.479 45.9498H312.995ZM310.104 45.9498L307.592 42.3375H306.002V45.9498H304.434V37.3781H306.002V40.9659H307.644L310.104 37.3781H311.793L308.868 41.5292L311.902 45.9498H310.104ZM294.377 45.9498V37.3781H295.945V43.464L300.549 37.3781H302.03V45.9498H300.463V39.8761L295.859 45.9498H294.377ZM290.368 37.3781H291.96V45.9498H290.368V42.2761H285.936V45.9498H284.344V37.3781H285.936V40.9171H290.368V37.3781ZM275.308 37.3781H277.145L279.165 40.2434L281.185 37.3781H283.047L280.169 41.4925L283.279 45.9498H281.393L279.165 42.8272L276.949 45.9498H275.112L278.21 41.5536L275.308 37.3781ZM269.637 44.6148H274.474V45.9498H268.045V37.3781H274.302V38.7127H269.637V40.9415H273.776V42.2517H269.637V44.6148ZM266.673 37.3781V38.725H263.832V45.9498H262.252V38.725H259.424V37.3781H266.673ZM253.073 37.3781H254.665V45.9498H253.073V42.2761H248.64V45.9498H247.048V37.3781H248.64V40.9171H253.073V37.3781ZM236.991 45.9498V37.3781H238.559V43.464L243.163 37.3781H244.644V45.9498H243.077V39.8761L238.473 45.9498H236.991ZM233.533 41.4797C234.047 41.643 234.447 41.9083 234.733 42.2755C235.026 42.6348 235.173 43.0592 235.173 43.5491C235.173 44.3163 234.814 44.9286 234.096 45.3856C233.385 45.8429 232.52 46.0716 231.5 46.0716C230.275 46.0716 229.169 45.7532 228.182 45.1164L228.696 43.953C229.463 44.4756 230.332 44.7369 231.304 44.7369C231.949 44.7369 232.483 44.6102 232.908 44.3572C233.341 44.1041 233.557 43.7573 233.557 43.3165C233.557 42.9407 233.402 42.655 233.092 42.4593C232.781 42.2633 232.353 42.1653 231.806 42.1653H229.81V40.9165H231.684C232.157 40.9165 232.528 40.8185 232.798 40.6225C233.067 40.4265 233.202 40.1612 233.202 39.8267C233.202 39.4265 233.018 39.1163 232.651 38.8959C232.292 38.6755 231.83 38.5653 231.267 38.5653C230.443 38.5653 229.663 38.7817 228.928 39.2143L228.426 37.9285C229.3 37.455 230.259 37.2184 231.304 37.2184C232.283 37.2184 233.112 37.4389 233.79 37.8797C234.475 38.3122 234.818 38.8959 234.818 39.6307C234.818 40.055 234.704 40.4265 234.475 40.7449C234.247 41.0633 233.933 41.3081 233.533 41.4797ZM226.046 45.9498L225.189 43.9658H220.903L220.058 45.9498H218.418L222.275 37.3781H223.842L227.711 45.9498H226.046ZM221.442 42.717H224.662L223.046 38.9701L221.442 42.717ZM219.824 37.3781L219.812 38.725H215.563L215.575 45.9498H214.008V37.3781H219.824ZM211.017 45.9498L210.159 43.9658H205.874L205.029 45.9498H203.388L207.245 37.3781H208.812L212.682 45.9498H211.017ZM206.413 42.717H209.633L208.016 38.9701L206.413 42.717ZM202.078 45.9498H200.56L200.548 40.2681L197.731 44.9701H197.021L194.205 40.3414V45.9498H192.699V37.3781H194.009L197.401 43.0476L200.756 37.3781H202.054L202.078 45.9498ZM183.054 36.8021C181.584 36.8021 180.841 36.2105 180.825 35.0266H181.939C181.956 35.6552 182.327 35.9696 183.054 35.9696C183.405 35.9696 183.678 35.8878 183.874 35.7245C184.078 35.5615 184.184 35.3285 184.192 35.0266H185.294C185.286 35.5981 185.09 36.0389 184.707 36.349C184.331 36.6513 183.78 36.8021 183.054 36.8021ZM179.245 45.9491V37.3778H180.813V43.4633L185.417 37.3778H186.898V45.9491H185.331V39.8755L180.727 45.9491H179.245ZM170.825 40.2803C171.853 40.2803 172.641 40.5129 173.188 40.9781C173.743 41.4354 174.021 42.1171 174.021 43.0231C174.021 43.9701 173.719 44.6966 173.115 45.2028C172.511 45.7007 171.662 45.9498 170.568 45.9498H166.882V37.3781H168.449V40.2803H170.825ZM175.258 45.9498V37.3781H176.825V45.9498H175.258ZM170.494 44.725C171.115 44.725 171.592 44.5821 171.927 44.2964C172.261 44.011 172.429 43.5946 172.429 43.0476C172.429 42.0109 171.784 41.4925 170.494 41.4925H168.449V44.725H170.494ZM163.378 41.4925C164.496 41.7944 165.056 42.4883 165.056 43.5742C165.056 44.3251 164.778 44.9088 164.223 45.3252C163.668 45.7416 162.864 45.9498 161.811 45.9498H157.745V37.3781H161.578C162.541 37.3781 163.292 37.5701 163.831 37.9535C164.37 38.3373 164.639 38.8803 164.639 39.5821C164.639 40.4964 164.219 41.1332 163.378 41.4925ZM159.313 38.6025V41.0395H161.443C162.497 41.0395 163.023 40.6353 163.023 39.8273C163.023 39.0107 162.497 38.6025 161.443 38.6025L159.313 38.6025ZM161.762 44.725C162.888 44.725 163.451 44.3007 163.451 43.4517C163.451 42.619 162.888 42.2026 161.762 42.2026H159.313V44.725H161.762ZM154.664 44.8227C153.791 45.6555 152.688 46.0719 151.358 46.0719C150.027 46.0719 148.925 45.6555 148.051 44.8227C147.178 43.982 146.741 42.9288 146.741 41.6635C146.741 40.3981 147.178 39.3492 148.051 38.5165C148.925 37.6757 150.027 37.2554 151.358 37.2554C152.688 37.2554 153.791 37.6718 154.664 38.5042C155.537 39.337 155.974 40.3899 155.974 41.6635C155.974 42.9371 155.537 43.9899 154.664 44.8227ZM149.203 43.8309C149.774 44.3941 150.492 44.6759 151.358 44.6759C152.223 44.6759 152.941 44.3941 153.513 43.8309C154.084 43.2594 154.37 42.5368 154.37 41.6635C154.37 40.7901 154.084 40.0718 153.513 39.5083C152.941 38.9371 152.223 38.6514 151.358 38.6514C150.492 38.6514 149.774 38.9371 149.203 39.5083C148.631 40.0718 148.345 40.7901 148.345 41.6635C148.345 42.5368 148.631 43.2594 149.203 43.8309ZM144.654 44.6026H145.891V47.774H144.422V45.9498H137.846V47.774H136.365L136.377 44.6026H136.744C137.022 44.5947 137.258 44.4762 137.454 44.2476C137.65 44.0189 137.801 43.6883 137.907 43.2558C138.022 42.8232 138.103 42.3619 138.152 41.872C138.21 41.3741 138.25 40.7822 138.275 40.0965L138.373 37.3781H144.654V44.6026ZM139.671 40.2434C139.581 42.5945 139.271 44.0476 138.74 44.6026H143.087V38.725H139.732L139.671 40.2434ZM133.479 37.3781H135.071V45.9498H133.479V42.2761H129.046V45.9498H127.455V37.3781H129.046V40.9171H133.479V37.3781ZM120.845 44.6148H125.681V45.9498H119.253V37.3781H125.51V38.7127H120.845V40.9415H124.984V42.2517H120.845V44.6148ZM114.098 37.3781C115.225 37.3781 116.115 37.6516 116.768 38.1987C117.421 38.7375 117.747 39.4802 117.747 40.4271C117.747 41.3658 117.421 42.1089 116.768 42.6556C116.115 43.2026 115.225 43.4762 114.098 43.4762H112.164V45.9498H110.572V37.3781H114.098ZM114.025 42.1293C114.719 42.1293 115.245 41.9822 115.604 41.6885C115.964 41.3945 116.143 40.9742 116.143 40.4271C116.143 39.8801 115.964 39.4597 115.604 39.1658C115.245 38.8721 114.719 38.725 114.025 38.725H112.164V42.1293H114.025ZM101.578 45.9498V37.3781H108.252V38.6883H103.146V40.7944H105.68C106.709 40.7944 107.489 41.0108 108.019 41.4434C108.558 41.868 108.827 42.4843 108.827 43.2924C108.827 44.1413 108.534 44.7986 107.946 45.2638C107.358 45.7211 106.521 45.9498 105.435 45.9498H101.578ZM103.146 44.725H105.35C106.599 44.725 107.223 44.2641 107.223 43.3415C107.223 42.4599 106.599 42.0191 105.35 42.0191H103.146V44.725ZM91.5093 45.9498V37.3781H93.0765V43.464L97.6806 37.3781H99.1624V45.9498H97.5948V39.8761L92.9907 45.9498H91.5093ZM90.1249 37.3781V38.725H87.284V45.9498H85.7043V38.725H82.8756V37.3781H90.1249ZM79.9429 40.2803C80.9714 40.2803 81.7593 40.5129 82.3063 40.9781C82.8613 41.4354 83.1388 42.1171 83.1388 43.0231C83.1388 43.9701 82.8369 44.6966 82.2327 45.2028C81.6286 45.7007 80.7797 45.9498 79.6859 45.9498H76.0001V37.3781H77.5673V40.2803H79.9429ZM79.6123 44.725C80.2326 44.725 80.7104 44.5821 81.045 44.2964C81.3798 44.011 81.5471 43.5946 81.5471 43.0476C81.5471 42.0109 80.9021 41.4925 79.6123 41.4925H77.5673V44.725H79.6123ZM67.27 37.3781H73.5762V45.9498H72.0087V38.725H68.6291L68.5558 40.8679C68.5311 41.5783 68.4905 42.1946 68.4331 42.717C68.376 43.2313 68.2902 43.7088 68.176 44.1496C68.0619 44.5904 67.9108 44.9497 67.723 45.2272C67.5435 45.4964 67.3188 45.7046 67.0496 45.8518C66.78 45.9986 66.4616 46.0722 66.0944 46.0722C65.8822 46.0722 65.5922 46.0313 65.225 45.9498L65.3352 44.566C65.4414 44.5986 65.5638 44.6148 65.7024 44.6148C66.2006 44.6148 66.5517 44.3211 66.7556 43.7332C66.9678 43.1373 67.0984 42.2026 67.1476 40.9293L67.27 37.3781ZM63.7109 37.3781H65.2781L61.5557 44.2964C60.9109 45.5212 60.0293 46.1332 58.9108 46.1332C58.4862 46.1332 58.0658 46.0435 57.6494 45.864L58.0414 44.6148C58.376 44.7211 58.6538 44.7742 58.8742 44.7742C59.3883 44.7742 59.8129 44.5089 60.1475 43.9783L60.2824 43.7701L56.8658 37.3781H58.568L61.1026 42.4108L63.7109 37.3781ZM55.5205 45.9498H54.0021L53.9899 40.2681L51.1738 44.9701H50.4634L47.647 40.3414V45.9498H46.1408V37.3781H47.451L50.8429 43.0476L54.1981 37.3781H55.4961L55.5205 45.9498ZM0 21.2586V6.62257C0 3.55303 2.53571 1.01731 5.60526 1.01731H20.2413C23.3107 1.01731 25.8465 3.55303 25.8465 6.62257V21.2586C25.8465 24.328 23.3107 26.8638 20.2413 26.8638H5.60526C2.53571 26.8638 0 24.3727 0 21.2586ZM5.64977 21.2141V6.71158H20.1523V21.2141H5.64977Z" fill="black"/>
</svg>
