<svg width="151" height="80" viewBox="0 0 151 80" fill="none" xmlns="http://www.w3.org/2000/svg">
<rect width="151" height="80" rx="30" fill="white"/>
<g clip-path="url(#clip0_188_475)">
<path fill-rule="evenodd" clip-rule="evenodd" d="M54.0034 60.0001C65.0509 60.0001 74.0068 51.0457 74.0068 40.0001C74.0068 28.9544 65.0509 20.0001 54.0034 20.0001C42.9559 20.0001 34 28.9546 34 40.0001C34 51.0456 42.9559 60.0001 54.0034 60.0001Z" fill="#C40452"/>
<path fill-rule="evenodd" clip-rule="evenodd" d="M58.8755 47.0375H54.7326V31.385H53.1968V48.5835H54.7326V48.5726H58.8755V47.0375Z" fill="white"/>
<path fill-rule="evenodd" clip-rule="evenodd" d="M69.2148 40.6394H58.8997V39.1044H70.7262C70.742 39.4016 70.7496 39.6989 70.7496 39.9999C70.7496 49.2465 63.2525 56.7423 54.0045 56.7423C44.7565 56.7423 37.2593 49.2465 37.2593 39.9999C37.2593 30.7532 44.7566 23.2576 54.0045 23.2576C54.2486 23.2576 54.4916 23.2627 54.7331 23.2732L54.7312 24.7976C54.4903 24.7864 54.248 24.7808 54.0045 24.7808C45.598 24.7808 38.7828 31.5948 38.7828 39.9999C38.7828 48.405 45.598 55.2192 54.0045 55.2192C62.1819 55.2192 68.853 48.7723 69.2112 40.6848L69.2148 40.6394Z" fill="white"/>
<path fill-rule="evenodd" clip-rule="evenodd" d="M47.756 36.0198C49.0552 36.0198 50.1086 34.9665 50.1086 33.6672C50.1086 32.3678 49.0552 31.3147 47.756 31.3147C46.4564 31.3147 45.4033 32.3678 45.4033 33.6672C45.4033 34.9665 46.4564 36.0198 47.756 36.0198Z" fill="white"/>
<path fill-rule="evenodd" clip-rule="evenodd" d="M83.9404 49.8169H98.2335V45.5012H89.6067H89.1892V45.0832V30.0455H83.9404V49.8169Z" fill="#808285"/>
<path fill-rule="evenodd" clip-rule="evenodd" d="M115.502 31.4379C113.862 30.1686 111.753 29.5248 109.235 29.5248C106.244 29.5248 103.747 30.4426 102.01 32.1781C100.196 33.9918 99.2373 36.6632 99.2373 39.9041C99.2373 43.3661 100.252 46.2872 102.094 48.1289C103.539 49.5738 105.468 50.3379 107.673 50.3379C112.513 50.3379 113.627 47.4365 113.627 47.4365V49.8171H117.998V38.6504H109.297V42.1441H113.302C113.302 42.1441 113.341 46.5427 109.207 46.5427C108.157 46.5427 107.221 46.1622 106.501 45.442C105.379 44.3214 104.787 42.4345 104.787 39.9862C104.787 35.9321 106.399 33.512 109.097 33.512C110.783 33.512 112.05 34.547 112.375 36.1152H117.942C117.653 33.8364 117.028 32.6485 115.502 31.4379Z" fill="#808285"/>
</g>
<defs>
<clipPath id="clip0_188_475">
<rect width="84" height="40" fill="white" transform="translate(34 20.0001)"/>
</clipPath>
</defs>
</svg>
