<svg width="151" height="80" viewBox="0 0 151 80" fill="none" xmlns="http://www.w3.org/2000/svg">
<rect width="151" height="80" rx="30" fill="white"/>
<path d="M33.9995 56.5935C30.0078 55.5717 25.5564 52.7079 25.5564 51.1618C25.5564 49.0928 30.0743 43.3001 35.0264 39.0202L37.8123 36.6126L39.0619 37.4844C41.0246 38.8535 47.3046 45.3688 48.7096 47.4937C50.9892 50.941 50.8876 51.7095 47.8634 53.8898C44.2163 56.5193 38.2523 57.6823 33.9995 56.5935ZM23.6658 49.4727C21.0629 45.6436 20.2266 39.3384 21.779 35.2452C22.7401 32.7098 25.0062 29.2575 26.2407 28.4474C27.1324 27.862 27.3034 27.8682 28.53 28.53C29.2591 28.9233 30.7809 30.0752 31.9119 31.0899L33.9684 32.9346L31.7663 35.6664C27.3414 41.1552 23.9334 48.0063 24.5928 50.0873C24.9255 51.1369 24.6919 50.9821 23.6658 49.4727ZM51.204 49.3537C51.16 46.1516 48.658 41.313 44.1286 35.6702L41.9389 32.9425L43.9021 31.138C44.9819 30.1455 46.5161 28.9843 47.3117 28.5577L48.7579 27.7818L50.36 29.3459C51.2413 30.2061 52.5279 32.0581 53.2192 33.4613C54.3022 35.6597 54.4947 36.5139 54.6111 39.6375C54.7675 43.827 54.1308 46.5315 52.3669 49.1713L51.2252 50.8801L51.204 49.3537ZM101.056 50.2928C98.743 49.4257 97.3931 48.2411 96.1851 46.0177C95.2018 44.2076 95.0462 43.4945 95.04 40.7665C95.0254 34.4169 98.1178 30.8215 103.952 30.4033C107.25 30.167 109.42 30.9148 111.434 32.9823C113.266 34.8619 114.09 37.2194 114.068 40.5165C114.039 44.9012 112.357 48.0998 109.243 49.6928C107.19 50.7428 103.063 51.0452 101.056 50.2928ZM107.841 47.8181C109.166 47.1469 110.853 45.1417 111.233 43.7866C111.395 43.2073 111.52 41.5801 111.51 40.1715C111.479 35.8398 109.444 33.0993 105.802 32.4827C100.147 31.5258 96.1163 37.4214 98.0367 43.8416C99.2459 47.8835 103.947 49.7902 107.841 47.8181ZM61.7549 50.2975C61.7549 50.2305 63.2498 47.9944 65.077 45.3272L68.399 40.4788L67.4937 39.0444C66.9957 38.2552 65.5883 36.058 64.366 34.1614L62.1437 30.7129H65.2653L67.5431 34.649C68.7959 36.8139 69.9094 38.5824 70.0176 38.5791C70.1257 38.5758 71.2767 36.8095 72.5751 34.654C74.8797 30.8282 74.9706 30.7345 76.3959 30.7239L77.8568 30.7129L74.707 35.5935L71.5574 40.4738L74.4573 44.9535C76.0521 47.4171 77.4864 49.6547 77.6451 49.9256C77.8545 50.2844 77.5249 50.4179 76.4344 50.4171C74.9529 50.416 74.9074 50.369 72.4225 46.2648L69.9092 42.1143L68.0745 44.9855C67.0654 46.5646 65.9008 48.4331 65.4864 49.1374C64.8473 50.224 64.507 50.4183 63.244 50.4183C62.425 50.4183 61.7549 50.3636 61.7549 50.2975ZM80.2476 40.5318V30.645L84.7478 30.7774C89.1105 30.906 89.2845 30.9452 90.453 32.0675C91.4985 33.0718 91.658 33.4996 91.658 35.2998C91.658 37.1489 91.5096 37.519 90.2962 38.6996L88.9345 40.0243L90.2075 40.4854C92.7703 41.4139 93.6637 45.1229 91.9454 47.6996C90.5075 49.8556 88.9245 50.4167 84.2806 50.4175L80.2476 50.4183V40.5318ZM89.2272 47.1207C90.5414 45.8041 90.6075 43.6735 89.3725 42.4361C88.667 41.7294 87.9493 41.5378 85.5558 41.417L82.6083 41.2676V44.5952C82.6083 46.4249 82.7413 48.059 82.9034 48.2269C83.0656 48.3939 84.3267 48.4424 85.7057 48.3338C87.7203 48.1753 88.4119 47.937 89.2272 47.1207ZM87.4544 38.5306C89.3856 37.5001 89.8639 35.4422 88.5495 33.8163C87.9082 33.0229 87.4467 32.8907 85.3034 32.8859L82.8051 32.8805L82.6902 35.9348L82.5753 38.9892H84.5849C85.6903 38.9892 86.9818 38.7829 87.4544 38.5306ZM114.872 50.202C114.872 50.0573 116.206 48.0067 117.836 45.6451C119.466 43.2836 120.897 41.0983 121.015 40.7888C121.134 40.4788 120.007 38.3068 118.512 35.9618C117.016 33.6168 115.664 31.4765 115.506 31.2056C115.297 30.8469 115.633 30.7129 116.741 30.7129C118.253 30.7129 118.277 30.7378 120.558 34.654C121.821 36.8216 122.906 38.5951 122.97 38.5951C123.033 38.5951 124.188 36.8216 125.534 34.654C127.843 30.9387 128.059 30.7129 129.297 30.7129C130.02 30.7129 130.611 30.7942 130.611 30.8932C130.611 30.9926 129.271 33.1401 127.634 35.6658C125.997 38.1913 124.737 40.4652 124.834 40.7188C124.931 40.9721 126.358 43.2581 128.005 45.7991L131 50.4183H129.486C127.99 50.4183 127.946 50.3736 125.412 46.2717L122.85 42.1247L120.3 46.1732C117.891 49.998 117.671 50.2282 116.312 50.3436C115.52 50.4106 114.872 50.3471 114.872 50.202ZM35.9904 28.5273C35.1288 28.0161 33.3188 27.2985 31.9684 26.9323C30.618 26.5663 29.5927 26.1378 29.6897 25.9804C29.7869 25.823 31.1162 25.2917 32.6435 24.7998C36.6413 23.5122 41.3733 23.7958 44.8987 25.5345C46.271 26.2113 47.0235 26.6747 46.571 26.5646C45.5636 26.3195 41.1739 27.6515 39.4165 28.7359C37.874 29.6875 37.9551 29.6923 35.9904 28.5273Z" fill="#7CB242"/>
</svg>
