<svg width="151" height="80" viewBox="0 0 151 80" fill="none" xmlns="http://www.w3.org/2000/svg">
<rect width="151" height="80" rx="30" fill="white"/>
<path fill-rule="evenodd" clip-rule="evenodd" d="M81.3191 39.4299C81.3191 39.4299 80.2491 38.7722 79.5867 38.518C79.5867 38.518 77.5386 37.575 77.1317 37.1261C77.1317 37.1261 76.3341 36.3786 76.8011 35.5106C76.8011 35.5106 76.9965 34.9426 77.8402 34.9426C77.8402 34.9426 78.9385 35.0026 78.9385 35.8996V37.1649H82.8748L82.8676 35.3013C82.8676 35.3013 83.1704 32.2498 78.231 32.1156C78.231 32.1156 74.3468 31.8618 73.2328 33.9406C73.2328 33.9406 72.7957 34.404 72.7957 36.0193V37.1862C72.7957 37.1862 72.7509 38.5325 73.4433 39.3996C73.4433 39.3996 73.8346 39.968 74.7986 40.5963C74.7986 40.5963 76.7558 41.6433 77.9299 42.2425C77.9299 42.2425 79.1158 42.9147 78.9593 43.9845C78.9593 43.9845 78.8636 45.083 77.7184 45.0382C77.7184 45.0382 76.6711 44.991 76.6711 43.9139V42.6496H72.477V44.4866C72.477 44.4866 72.3591 47.9997 77.7495 47.9997C77.7495 47.9997 82.8986 48.1039 83.1393 44.3942V42.8994C83.1393 42.8994 83.3204 40.626 81.3191 39.4299Z" fill="#0B4DA2"/>
<path fill-rule="evenodd" clip-rule="evenodd" d="M61.1675 32.5527L59.8495 40.7586H59.5413L58.2821 32.6262H51.7069L51.3779 47.4858H55.2708L55.3173 36.2895H55.6234L57.687 47.4835H61.7826L63.8209 36.2937H64.0919L64.1859 47.4858H68.0991L67.6782 32.5527H61.1675Z" fill="#0B4DA2"/>
<path fill-rule="evenodd" clip-rule="evenodd" d="M37.9938 32.6144L35.4037 47.469H39.5943L41.1285 35.9512H41.4733L43.007 47.469H47.1971L44.6077 32.6144H37.9938Z" fill="#0B4DA2"/>
<path fill-rule="evenodd" clip-rule="evenodd" d="M125.932 39.2252V41.4169H127.006V43.7693C127.006 44.9186 126.018 44.9399 126.018 44.9399C124.814 44.9399 124.86 43.8474 124.86 43.8474V35.7109C124.86 34.8726 125.927 34.8278 125.927 34.8278C126.952 34.8278 126.959 35.8275 126.959 35.8275V37.0648H130.905C131.033 34.6503 130.55 34.0655 130.55 34.0655C129.57 31.8817 125.868 32.0012 125.868 32.0012C120.177 32.0012 120.809 36.3388 120.809 36.3388V44.2061C120.931 48.2741 126.537 47.8613 126.632 47.8562C129.127 47.5819 129.88 46.7949 129.88 46.7949C130.573 46.2833 130.752 45.5756 130.752 45.5756C130.95 45.1626 131 43.8474 131 43.8474V39.2252H125.932Z" fill="#0B4DA2"/>
<path fill-rule="evenodd" clip-rule="evenodd" d="M112.853 41.6429H112.681L108.676 32.5562H103.886V47.4883H107.785L107.551 38.4026H107.725L111.873 47.4883H116.52V32.5552H112.572L112.853 41.6429Z" fill="#0B4DA2"/>
<path fill-rule="evenodd" clip-rule="evenodd" d="M94.3673 43.7674C94.3673 43.7674 94.4241 44.9931 93.2807 44.9931C93.2807 44.9931 92.0771 45.0571 92.0771 43.7978L92.0651 32.5653H87.7882V43.7085C87.7882 43.7085 87.3496 47.9263 93.34 47.9263C93.34 47.9263 98.5466 47.9877 98.5466 43.902V32.5657H94.3673V43.7674Z" fill="#0B4DA2"/>
<path fill-rule="evenodd" clip-rule="evenodd" d="M29.8404 39.4295C29.8404 39.4295 28.7717 38.7722 28.1091 38.518C28.1091 38.518 26.0618 37.5757 25.6557 37.126C25.6557 37.126 24.8575 36.3777 25.3249 35.5114C25.3249 35.5114 25.5199 34.9432 26.3627 34.9432C26.3627 34.9432 27.4617 35.0025 27.4617 35.8996V37.1649H31.3994L31.3916 35.3006C31.3916 35.3006 31.6925 32.2492 26.7548 32.1156C26.7548 32.1156 26.3831 32.0918 25.8373 32.1191C25.8373 32.1191 22.8463 32.2788 21.777 33.9087C21.771 33.9205 21.7622 33.9298 21.7562 33.9406C21.7562 33.9406 21.3195 34.4034 21.3195 36.0192V37.1862C21.3195 37.1862 21.2744 38.5321 21.9673 39.3996C21.9673 39.3996 22.3584 39.9679 23.3224 40.5962C23.3224 40.5962 25.2784 41.6429 26.4532 42.2416C26.4532 42.2416 27.64 42.914 27.4833 43.9845C27.4833 43.9845 27.3868 45.083 26.2424 45.0381C26.2424 45.0381 25.1953 44.9909 25.1953 43.9139V42.6488H21.0002V44.4865C21.0002 44.4865 20.8829 47.9997 26.2722 47.9997C26.2722 47.9997 31.4208 48.1039 31.6627 44.3941V42.8997C31.6627 42.8997 31.8431 40.626 29.8404 39.4295Z" fill="#0B4DA2"/>
</svg>
