<svg width="151" height="80" viewBox="0 0 151 80" fill="none" xmlns="http://www.w3.org/2000/svg">
<rect width="151" height="80" rx="30" fill="white"/>
<path d="M123.153 49.5252C121.351 49.5252 119.799 49.141 118.497 48.3727C117.204 47.5966 116.203 46.5075 115.497 45.1056C114.798 43.6958 114.449 42.0444 114.449 40.1515C114.449 38.2823 114.798 36.6349 115.497 35.2092C116.203 33.7836 117.188 32.6708 118.45 31.8708C119.72 31.0708 121.204 30.6709 122.903 30.6709C123.935 30.6709 124.935 30.8412 125.904 31.1817C126.872 31.5223 127.741 32.0569 128.511 32.7856C129.281 33.5143 129.889 34.4607 130.333 35.625C130.778 36.7814 131 38.1872 131 39.8426V41.1019H116.461V38.4407H127.511C127.511 37.5061 127.321 36.6784 126.94 35.9577C126.559 35.229 126.023 34.6548 125.332 34.235C124.65 33.8152 123.848 33.6053 122.927 33.6053C121.927 33.6053 121.054 33.8509 120.307 34.3419C119.569 34.8251 118.998 35.4587 118.593 36.2428C118.196 37.019 117.997 37.8625 117.997 38.7733V40.8524C117.997 42.0721 118.212 43.1097 118.64 43.9651C119.077 44.8205 119.684 45.4739 120.462 45.9254C121.24 46.3689 122.149 46.5907 123.189 46.5907C123.864 46.5907 124.479 46.4956 125.035 46.3055C125.59 46.1075 126.07 45.8145 126.475 45.4264C126.88 45.0383 127.19 44.5591 127.404 43.9889L130.774 44.5948C130.504 45.5848 130.02 46.4521 129.321 47.1966C128.63 47.9332 127.761 48.5074 126.713 48.9192C125.674 49.3232 124.487 49.5252 123.153 49.5252Z" fill="black"/>
<path d="M112.493 24.8257V49.1569H108.933V24.8257H112.493Z" fill="black"/>
<path d="M90.2497 56V30.9085H93.7266V33.8667H94.0242C94.2306 33.4865 94.5283 33.047 94.9173 32.548C95.3063 32.049 95.846 31.6134 96.5367 31.2411C97.2273 30.861 98.1402 30.6709 99.2753 30.6709C100.752 30.6709 102.07 31.0431 103.229 31.7876C104.387 32.5321 105.296 33.6053 105.955 35.0072C106.622 36.4091 106.955 38.0962 106.955 40.0683C106.955 42.0405 106.626 43.7315 105.967 45.1413C105.308 46.5432 104.403 47.6243 103.252 48.3846C102.101 49.1371 100.788 49.5133 99.311 49.5133C98.1997 49.5133 97.2908 49.3271 96.5843 48.9549C95.8857 48.5826 95.338 48.147 94.9411 47.648C94.5442 47.1491 94.2386 46.7055 94.0242 46.3174H93.8099V56H90.2497ZM93.7385 40.0327C93.7385 41.3158 93.925 42.4404 94.2981 43.4067C94.6712 44.373 95.211 45.1294 95.9175 45.6759C96.624 46.2145 97.4892 46.4838 98.5133 46.4838C99.577 46.4838 100.466 46.2026 101.18 45.6402C101.895 45.07 102.435 44.2978 102.8 43.3236C103.173 42.3494 103.359 41.2524 103.359 40.0327C103.359 38.8288 103.177 37.7477 102.812 36.7893C102.455 35.831 101.915 35.0746 101.192 34.5201C100.478 33.9657 99.5849 33.6885 98.5133 33.6885C97.4813 33.6885 96.6081 33.9538 95.8937 34.4845C95.1872 35.0152 94.6514 35.7557 94.2862 36.7061C93.9211 37.6566 93.7385 38.7654 93.7385 40.0327Z" fill="black"/>
<path d="M71.5668 56V30.9085H75.0437V33.8667H75.3414C75.5478 33.4865 75.8455 33.047 76.2344 32.548C76.6234 32.049 77.1632 31.6134 77.8538 31.2411C78.5444 30.861 79.4573 30.6709 80.5924 30.6709C82.0689 30.6709 83.3867 31.0431 84.5456 31.7876C85.7046 32.5321 86.6135 33.6053 87.2724 35.0072C87.9392 36.4091 88.2726 38.0962 88.2726 40.0683C88.2726 42.0405 87.9432 43.7315 87.2843 45.1413C86.6254 46.5432 85.7205 47.6243 84.5694 48.3846C83.4184 49.1371 82.1047 49.5133 80.6282 49.5133C79.5168 49.5133 78.6079 49.3271 77.9014 48.9549C77.2029 48.5826 76.6551 48.147 76.2582 47.648C75.8613 47.1491 75.5557 46.7055 75.3414 46.3174H75.127V56H71.5668ZM75.0556 40.0327C75.0556 41.3158 75.2422 42.4404 75.6152 43.4067C75.9883 44.373 76.5281 45.1294 77.2346 45.6759C77.9411 46.2145 78.8064 46.4838 79.8304 46.4838C80.8941 46.4838 81.7832 46.2026 82.4976 45.6402C83.212 45.07 83.7518 44.2978 84.117 43.3236C84.4901 42.3494 84.6766 41.2524 84.6766 40.0327C84.6766 38.8288 84.494 37.7477 84.1289 36.7893C83.7717 35.831 83.2319 35.0746 82.5095 34.5201C81.7951 33.9657 80.902 33.6885 79.8304 33.6885C78.7984 33.6885 77.9252 33.9538 77.2108 34.4845C76.5043 35.0152 75.9685 35.7557 75.6033 36.7061C75.2382 37.6566 75.0556 38.7654 75.0556 40.0327Z" fill="black"/>
<path d="M52.4464 49.1569H48.5408L57.3164 24.8257H61.5673L70.3429 49.1569H66.4373L59.543 29.2452H59.3525L52.4464 49.1569ZM53.1012 39.6287H65.7705V42.7177H53.1012V39.6287Z" fill="black"/>
<path d="M35.0639 28.0512C34.2125 29.0804 32.7717 29.8482 31.6257 29.8482C31.4947 29.8482 31.3637 29.8318 31.2819 29.8155C31.2655 29.7501 31.2327 29.5541 31.2327 29.3581C31.2327 28.0512 31.904 26.7444 32.6244 25.9276C33.5412 24.8495 35.0803 24.049 36.3573 24C36.39 24.147 36.4064 24.3267 36.4064 24.5064C36.4064 25.8133 35.8498 27.1038 35.0639 28.0512ZM35.9644 30.1259C36.6847 30.1259 39.288 30.1912 40.9907 32.6415C40.8433 32.7559 38.2565 34.2098 38.2565 37.4606C38.2565 41.2177 41.5473 42.5573 41.6456 42.5899C41.6292 42.6716 41.1217 44.4032 39.9101 46.1838C38.8295 47.7357 37.6835 49.3039 35.9644 49.3039C34.2289 49.3039 33.7868 48.2911 31.8058 48.2911C29.8575 48.2911 29.1698 49.3366 27.5981 49.3366C26.01 49.3366 24.913 47.8827 23.6523 46.1184C22.1788 44.0275 21 40.793 21 37.7219C21 32.8049 24.209 30.1912 27.3689 30.1912C29.0388 30.1912 30.4305 31.2857 31.4947 31.2857C32.4934 31.2857 34.0488 30.1259 35.9644 30.1259Z" fill="black"/>
</svg>
