<svg width="151" height="80" viewBox="0 0 151 80" fill="none" xmlns="http://www.w3.org/2000/svg">
<rect width="151" height="80" rx="30" fill="white"/>
<g clip-path="url(#clip0_188_464)">
<path d="M79.8957 42.5457L70.9347 29.2118H67.9924V50.577H71.683V37.1791L80.687 50.577H83.5862V29.2116H79.8956V42.5457H79.8957ZM122.679 39.3654H118.567V33.0192H122.679C124.366 33.0198 125.732 34.4401 125.732 36.1923C125.732 37.9449 124.365 39.3654 122.679 39.3654ZM124.682 42.9993C127.412 42.1051 129.389 39.4781 129.389 36.3754C129.389 32.5422 126.371 29.434 122.644 29.4237V29.4231H114.774V50.7885H118.476V41.2805L126.189 50.7885H131L124.682 42.9993ZM99.1803 47.1923C95.3397 47.1923 92.2261 43.9722 92.2261 40.0001C92.2261 36.0279 95.3397 32.8077 99.1803 32.8077C103.021 32.8077 106.134 36.0278 106.134 40.0001C106.134 43.9723 103.021 47.1923 99.1803 47.1923ZM99.0747 29C93.1976 29 88.433 33.925 88.433 40.0001C88.433 46.0751 93.1976 51 99.0747 51C104.952 51 109.717 46.0751 109.717 40.0001C109.717 33.925 104.952 29 99.0747 29ZM52.1877 47.1923C48.3472 47.1923 45.2338 43.9722 45.2338 40.0001C45.2338 36.0279 48.3472 32.8077 52.1877 32.8077C56.0282 32.8077 59.1419 36.0278 59.1419 40.0001C59.1419 43.9723 56.0282 47.1923 52.1877 47.1923ZM52.2932 29C46.4159 29 41.6514 33.925 41.6514 40.0001C41.6514 46.0751 46.4159 51 52.2932 51C58.1705 51 62.935 46.0751 62.935 40.0001C62.935 33.925 58.1704 29 52.2932 29ZM32.9031 38.0834H24.6907V29.4231H21V50.7885H24.6907V41.889H32.9031V50.7885H36.594V29.4231H32.9031V38.0834Z" fill="#160600"/>
</g>
<defs>
<clipPath id="clip0_188_464">
<rect width="110" height="22" fill="white" transform="translate(21 29)"/>
</clipPath>
</defs>
</svg>
