<svg width="151" height="80" viewBox="0 0 151 80" fill="none" xmlns="http://www.w3.org/2000/svg">
<rect width="151" height="80" rx="30" fill="white"/>
<path fill-rule="evenodd" clip-rule="evenodd" d="M44.7894 41.7923C44.4625 41.5551 44.1709 41.2622 43.9347 40.9339C43.6984 40.6057 43.5176 40.2418 43.3978 39.8648C43.278 39.4879 43.2193 39.0977 43.2193 38.7054C43.2193 38.3129 43.2783 37.9183 43.398 37.5382C43.5179 37.158 43.6986 36.7922 43.9346 36.4625C44.1705 36.1329 44.4615 35.8394 44.788 35.6014C45.1145 35.3635 45.4765 35.1814 45.8522 35.0606C46.2279 34.9399 46.6173 34.8805 47.009 34.8807C47.4004 34.8807 47.7943 34.9401 48.1731 35.061C48.552 35.1816 48.9159 35.3637 49.2438 35.6014C49.5716 35.8389 49.8634 36.1318 50.1 36.4611C50.3365 36.7903 50.518 37.1558 50.6383 37.5363C50.7585 37.9167 50.8177 38.312 50.8177 38.7054C50.8178 39.0985 50.7587 39.4895 50.6385 39.8667C50.5182 40.2441 50.3368 40.6076 50.1 40.9355C49.8631 41.2633 49.5706 41.5555 49.2423 41.7924C48.914 42.0293 48.5498 42.2108 48.1712 42.3311C47.7926 42.4514 47.3997 42.5105 47.009 42.5105C46.6181 42.5107 46.2295 42.4517 45.8541 42.3313C45.4786 42.2111 45.1164 42.0296 44.7894 41.7923ZM53.0221 20.0164H41L47.0234 33.7204L53.0221 20.0164ZM56.8369 53.0466C56.8369 53.4171 56.7633 53.7878 56.6222 54.1303C56.4811 54.4728 56.2719 54.7869 56.0109 55.0491C55.7497 55.3112 55.4369 55.5213 55.0959 55.663C54.7548 55.8047 54.3856 55.8786 54.0165 55.8786H53.4449C53.076 55.8786 52.7067 55.8047 52.3656 55.663C52.0246 55.5213 51.7117 55.3112 51.4506 55.0491C51.1896 54.7869 50.9803 54.4728 50.8392 54.1303C50.6982 53.7878 50.6249 53.4171 50.6246 53.0466L50.6197 46.6233L44.1134 46.6145V51.4637C44.1134 52.4498 44.3094 53.4366 44.6847 54.3478C45.06 55.259 45.6168 56.0951 46.3116 56.7927C47.0062 57.4902 47.8388 58.0494 48.7464 58.4263C49.6539 58.8032 50.6365 59 51.6185 59H55.6413C56.6233 59 57.6058 58.8032 58.5134 58.4263C59.4209 58.0494 60.2534 57.4902 60.9481 56.7927C61.6429 56.0951 62.1997 55.259 62.5751 54.3478C62.9503 53.4366 63.1463 52.4498 63.1463 51.4637V20.0456L56.8341 20.0545L56.8369 53.0466ZM104.924 46.6233L104.919 52.3264C104.919 52.697 104.845 53.0678 104.704 53.4103C104.563 53.7527 104.354 54.067 104.093 54.329C103.832 54.5913 103.519 54.8014 103.178 54.9429C102.837 55.0846 102.468 55.1586 102.099 55.1586H101.527C101.158 55.1586 100.789 55.0846 100.448 54.9429C100.107 54.8014 99.7939 54.5913 99.5327 54.329C99.2717 54.067 99.0624 53.7527 98.9214 53.4103C98.7803 53.0678 98.7067 52.697 98.7067 52.3264L98.7095 20.0545L92.3973 20.0456L92.3995 58.1918H110.995L111 46.6145L104.924 46.6233ZM87.1382 40.9083C87.4534 41.6588 87.6186 42.4742 87.6175 43.2891C87.6099 46.216 87.6175 49.1429 87.6175 52.0697C87.6178 52.8722 87.4583 53.6751 87.1536 54.4156C86.8488 55.1561 86.3969 55.8341 85.8334 56.4003C85.27 56.9664 84.595 57.4205 83.8579 57.7269C83.1208 58.0332 82.3214 58.194 81.5225 58.194H68.4921V20H81.0445C81.8434 20 82.6428 20.1608 83.3799 20.4671C84.117 20.7735 84.792 21.2276 85.3554 21.7937C85.9189 22.3599 86.3708 23.0379 86.6755 23.7784C86.9802 24.5188 87.1398 25.3218 87.1394 26.1243L87.1362 33.067C87.1358 33.7423 86.987 34.4178 86.7035 35.0252C86.4198 35.6327 85.9986 36.172 85.5216 36.627C85.0445 37.0818 84.5116 37.4525 83.934 37.7295C84.6213 37.9841 85.254 38.3851 85.8045 38.9286C86.3549 39.4719 86.823 40.1578 87.1382 40.9083ZM74.6168 23.2904V36.135L78.4161 36.1205C78.7226 36.1194 79.0292 36.0591 79.3124 35.9415C79.5958 35.824 79.8555 35.6494 80.0724 35.4317C80.2892 35.214 80.4629 34.9531 80.5801 34.6686C80.6973 34.3841 80.7592 34.0763 80.7584 33.7684L80.7407 26.1111C80.7398 25.7406 80.667 25.3697 80.5259 25.0273C80.3849 24.6848 80.1757 24.3706 79.9146 24.1085C79.6536 23.8464 79.3406 23.6363 78.9996 23.4946C78.6585 23.353 78.2893 23.2778 77.9202 23.279L74.6168 23.2904ZM80.8192 53.2452C80.9363 52.9608 80.998 52.6528 80.9974 52.3451L80.9797 42.3879C80.979 42.0173 80.9059 41.6465 80.765 41.3041C80.6239 40.9616 80.4147 40.6474 80.1537 40.3853C79.8925 40.1231 79.5797 39.913 79.2387 39.7713C78.8976 39.6297 78.5284 39.5546 78.1593 39.5558L74.6168 39.5671V54.7116L78.655 54.6971C78.9617 54.6961 79.2683 54.6358 79.5515 54.5181C79.8347 54.4005 80.0945 54.2261 80.3114 54.0083C80.5283 53.7905 80.702 53.5296 80.8192 53.2452Z" fill="#EB5E07"/>
</svg>
