<svg width="150" height="80" viewBox="0 0 150 80" fill="none" xmlns="http://www.w3.org/2000/svg">
<rect width="150" height="80" rx="30" fill="white"/>
<path fill-rule="evenodd" clip-rule="evenodd" d="M37.0385 39.8842C37.0385 42.5712 34.8745 44.7211 32.1698 44.7211C29.465 44.7211 27.3013 42.5712 27.3013 39.8842C27.3013 37.1971 29.465 35.0476 32.1698 35.0476H37.0385V39.8842ZM42.4479 20H37.0385V29.7809H32.1698C26.5438 29.7809 22 34.2951 22 39.8842C22 45.4733 26.5438 49.9874 32.1698 49.9874C37.7957 49.9874 42.3395 45.4733 42.3395 39.8842V29.7809L42.4479 20Z" fill="#41509E"/>
<path fill-rule="evenodd" clip-rule="evenodd" d="M96.2183 44.721C98.9231 44.721 101.087 42.5712 101.087 39.8841C101.087 37.1971 98.9231 35.0475 96.2183 35.0475C93.5135 35.0475 91.3499 37.1971 91.3499 39.8841C91.4579 42.5712 93.622 44.721 96.2183 44.721ZM86.157 39.8841C86.157 34.295 90.7009 29.7808 96.3267 29.7808C101.952 29.7808 106.496 34.295 106.496 39.8841C106.496 45.4732 101.953 49.9874 96.3267 49.9874C90.7008 49.9874 86.157 45.4732 86.157 39.8841Z" fill="#41509E"/>
<path fill-rule="evenodd" clip-rule="evenodd" d="M123.482 39.8841C123.482 37.3048 121.318 35.1549 118.721 35.1549C116.125 35.1549 113.961 37.3048 113.961 39.8841V49.5576H108.66V39.8841C108.66 34.295 113.204 29.7808 118.83 29.7808C124.455 29.7808 129 34.295 129 39.8841V49.5576H123.698C123.482 49.5576 123.482 41.1741 123.482 39.8841Z" fill="#41509E"/>
<path fill-rule="evenodd" clip-rule="evenodd" d="M73.7152 36.445C72.9578 35.9075 73.1743 35.0476 74.4724 34.7251C76.0954 34.2951 78.9083 34.6175 81.2884 35.6924L83.777 32.2529C82.6949 31.3934 80.3148 30.211 76.8526 29.9959C76.8526 29.9959 71.0106 29.2434 68.6304 33.6503C68.6304 33.6503 66.5748 37.7346 70.686 40.3143C73.1743 41.819 77.502 42.4639 78.9083 43.1088C79.9903 43.7536 79.6657 44.9359 78.0427 45.2582C75.2299 45.9034 71.5516 44.291 70.3615 43.4311L67.7648 46.9781C69.496 48.268 71.6596 49.4504 75.1218 49.9875C75.1218 49.9875 80.6393 50.955 83.6686 47.1931C84.2096 46.5482 86.6978 41.9264 81.7213 39.2393C79.1247 37.842 75.0135 37.1972 73.7152 36.445Z" fill="#41509E"/>
<path fill-rule="evenodd" clip-rule="evenodd" d="M48.8305 53.4268C49.047 53.5342 51.5352 55.254 53.9154 55.254C59.7578 55.3617 60.0822 49.3425 60.0822 47.9454C59.0002 49.1277 56.7284 49.8799 55.3219 49.8799C49.696 49.8799 45.2603 45.5808 45.2603 39.9917V30.2109H50.5616V39.9917C50.5616 42.5711 52.7253 44.7209 55.3219 44.7209C57.9184 44.7209 60.0822 42.5711 60.0822 39.9917V30.2109H65.3835V39.9917C65.3835 48.6976 65.8162 57.6186 57.2695 59.6608C50.8861 61.1655 46.3422 57.1888 46.0177 56.9737L48.8305 53.4268Z" fill="#41509E"/>
</svg>
