<svg width="151" height="80" viewBox="0 0 151 80" fill="none" xmlns="http://www.w3.org/2000/svg">
<rect width="151" height="80" rx="30" fill="white"/>
<g clip-path="url(#clip0_188_483)">
<path d="M41.5642 20H36.2089C30.8536 20 26.2456 23.9811 26.2456 31.6944C26.2456 36.2975 28.4873 39.781 32.3481 41.5227L25.1247 54.4612C24.8756 54.8344 25.1247 55.2076 25.4983 55.2076H28.8609C29.11 55.2076 29.3591 55.0832 29.4837 54.8344L36.0844 42.1447H38.4507V54.8344C38.4507 54.9588 38.5752 55.2076 38.8243 55.2076H41.8133C42.0624 55.2076 42.187 55.0832 42.187 54.8344V20.4976C42.0624 20.1244 41.9379 20 41.5642 20ZM38.4507 39.1589H36.458C27.8646 39.1589 28.4873 22.9858 36.0844 22.9858H38.5752V39.1589H38.4507Z" fill="#FF0000"/>
<path d="M59.4996 31.6944H56.5106C56.2615 31.6944 56.137 31.8188 56.137 32.0676V41.025H50.6571V32.0676C50.6571 31.8188 50.5326 31.6944 50.2835 31.6944H47.419C47.17 31.6944 47.0454 31.8188 47.0454 32.0676V54.8344C47.0454 55.0832 47.17 55.2076 47.419 55.2076H50.408C50.6571 55.2076 50.7817 55.0832 50.7817 54.8344V43.8864H56.2615V54.8344C56.2615 55.0832 56.3861 55.2076 56.6352 55.2076H59.6242C59.8733 55.2076 59.9978 55.0832 59.9978 54.8344V32.0676C59.8733 31.8188 59.7487 31.6944 59.4996 31.6944ZM126.752 52.0974C126.752 51.973 126.628 51.973 126.503 51.973C125.258 51.973 117.661 55.5808 117.661 43.6376C117.661 38.4125 119.653 31.0724 124.386 35.4267C124.511 35.5511 124.635 35.5511 124.76 35.5511C124.884 35.5511 125.009 35.4267 125.133 35.1779L126.379 33.0629C126.503 32.9385 126.503 32.8141 126.503 32.6897C126.503 32.4409 126.254 32.3165 126.005 32.192C117.785 28.0866 113.551 35.6755 113.551 44.5085C113.551 55.9541 121.895 57.5714 126.628 54.0879C126.877 53.9635 126.877 53.7147 126.877 53.5903L126.752 52.0974ZM106.327 42.2691L112.056 31.9432C112.181 31.8188 112.056 31.57 111.932 31.57H109.067C108.196 31.57 107.947 31.8188 107.697 32.4409C107.448 33.0629 103.214 41.8959 102.716 42.2691V31.9432C102.716 31.8188 102.591 31.57 102.467 31.57H99.3531C99.2286 31.57 99.104 31.6944 99.104 31.9432V54.8344C99.104 54.9588 99.2286 55.2076 99.3531 55.2076H102.467C102.716 55.2076 102.716 55.0832 102.716 54.8344V43.0156C103.089 43.2644 108.32 54.0879 108.445 54.4612C108.694 54.9588 109.192 55.2076 109.815 55.2076H112.928C113.177 55.2076 113.177 55.0832 113.053 54.8344L106.327 42.2691ZM79.0527 52.2218H78.43C77.6828 52.2218 77.5582 51.973 77.5582 51.351V31.9432C77.5582 31.6944 77.4337 31.57 77.3092 31.57H67.7194C67.4703 31.57 67.3458 31.6944 67.3458 31.9432C67.3458 37.1684 67.4703 45.877 63.9831 52.2218H62.9868C62.7377 52.2218 62.6132 52.3462 62.6132 52.595V59.4375C62.6132 59.6863 62.8623 59.8107 62.9868 59.8107H65.2286C65.7267 59.8107 65.9758 59.4375 65.9758 59.0643V55.2076H76.0637V59.4375C76.0637 59.5619 76.1883 59.8107 76.4373 59.8107H78.9282C79.1773 59.8107 79.5509 59.5619 79.5509 59.0643V52.595C79.4264 52.3462 79.3018 52.2218 79.0527 52.2218ZM73.822 52.2218H66.8476C68.8403 48.9872 70.7084 43.762 70.7084 34.5558H73.822V52.2218ZM88.767 31.0724C83.6608 31.0724 81.2945 37.4172 81.2945 44.3841C81.2945 55.8297 89.2652 57.5714 94.745 54.2124C94.9941 54.0879 94.9941 53.9635 94.9941 53.8391L94.6205 52.2218C94.6205 52.0974 94.496 51.973 94.2469 51.973C92.2542 51.973 85.2798 55.4564 85.2798 44.1353C87.7707 44.3841 87.7707 44.3841 95.2432 44.3841C95.1187 38.6613 94.496 31.0724 88.767 31.0724ZM85.4044 41.5227C85.4044 32.4409 91.3824 30.6991 91.3824 41.2739C88.767 41.2739 87.6461 41.2739 85.4044 41.5227Z" fill="black"/>
</g>
<defs>
<clipPath id="clip0_188_483">
<rect width="102" height="40" fill="white" transform="translate(25 20)"/>
</clipPath>
</defs>
</svg>
