<svg width="151" height="80" viewBox="0 0 151 80" fill="none" xmlns="http://www.w3.org/2000/svg">
<rect width="151" height="80" rx="30" fill="white"/>
<path d="M48.3118 37.1124C48.1298 33.3603 47.2444 30.8572 45.4146 28.9427C43.4729 27.1387 40.934 26.2658 37.1284 26.0863C36.0546 26.0356 35.1863 26.0043 34.1998 25.9998C33.2133 26.0043 32.345 26.0356 31.2712 26.0863C27.4656 26.2658 24.9267 27.1387 22.985 28.9427C21.1552 30.8572 20.2698 33.3603 20.0878 37.1124C20.0364 38.1711 20.0046 39.0272 20 39.9998C20.0046 40.9723 20.0364 41.8284 20.0878 42.8871C20.2698 46.6392 21.1552 49.1424 22.985 51.0568C24.9267 52.8608 27.4656 53.7337 31.2712 53.9132C32.345 53.9639 33.2133 53.9952 34.1998 53.9998C35.1863 53.9952 36.0546 53.9639 37.1284 53.9132C40.934 53.7337 43.4729 52.8608 45.4146 51.0568C47.2444 49.1424 48.1298 46.6392 48.3118 42.8871C48.3632 41.8284 48.395 40.9723 48.3996 39.9998C48.395 39.0272 48.3632 38.1711 48.3118 37.1124ZM33.1395 45.4127H30.3623V38.7837H33.1395V45.4127ZM37.933 45.4127H35.1558V38.5825C35.1558 37.6248 34.3683 36.8484 33.3969 36.8484H28.3459V45.4127H25.5688V34.6017H34.5261C36.4076 34.6017 37.933 36.1055 37.933 37.9606V45.4127ZM42.7569 45.4127H39.9798V34.6017H42.7569V45.4127Z" fill="#E96102"/>
<path d="M123.64 36.0894C123.005 35.4988 122.167 35.21 120.907 35.1454C120.551 35.1272 120.262 35.1156 119.935 35.1126C119.607 35.1125 119.319 35.1215 118.962 35.1364C117.903 35.1806 117.139 35.3855 116.54 35.7951C116.483 35.8338 116.407 35.8338 116.35 35.7951C115.751 35.3855 114.987 35.1806 113.928 35.1364C113.571 35.1215 113.283 35.1125 112.955 35.1126C112.628 35.1156 112.34 35.1272 111.984 35.1454C110.723 35.21 109.885 35.4988 109.25 36.0894C108.654 36.7142 108.373 37.5266 108.328 38.7385C108.316 39.0795 108.309 39.3549 108.312 39.6674V45.9514C108.312 45.9979 108.35 46.0357 108.397 46.0357H110.87C110.917 46.0357 110.955 45.9979 110.955 45.9514L110.956 39.097C110.954 38.9612 110.957 38.8415 110.963 38.6933C110.983 38.1666 111.109 37.8135 111.376 37.542C111.66 37.2853 112.035 37.1598 112.6 37.1317C112.76 37.1238 112.889 37.1188 113.035 37.1174C113.182 37.1174 113.311 37.1213 113.471 37.1278C114.038 37.1508 114.417 37.2733 114.706 37.5285C114.978 37.7991 115.108 38.1529 115.133 38.682C115.14 38.8309 115.145 38.9511 115.145 39.0876V45.9514C115.145 45.9979 115.183 46.0357 115.23 46.0357H117.66C117.707 46.0357 117.745 45.9979 117.745 45.9514V39.0876C117.746 38.9511 117.75 38.8309 117.757 38.682C117.782 38.1529 117.913 37.7991 118.185 37.5285C118.474 37.2733 118.852 37.1508 119.419 37.1278C119.579 37.1213 119.708 37.1174 119.855 37.1174C120.001 37.1188 120.13 37.1238 120.29 37.1317C120.855 37.1598 121.23 37.2853 121.514 37.542C121.782 37.8135 121.908 38.1666 121.927 38.6933C121.933 38.8415 121.936 38.9612 121.935 39.097V45.9514C121.935 45.9979 121.973 46.0357 122.02 46.0357H124.493C124.54 46.0357 124.578 45.9979 124.578 45.9514V39.6674C124.581 39.3549 124.574 39.0795 124.562 38.7385C124.518 37.5266 124.236 36.7142 123.64 36.0894Z" fill="#6F6F6E"/>
<path d="M103.863 36.2721C103.086 35.5523 102.069 35.2066 100.546 35.1418C100.117 35.1235 99.7696 35.1125 99.3754 35.1126C98.9812 35.1163 98.6345 35.1305 98.2059 35.1529C96.6885 35.232 95.6804 35.5861 94.9158 36.3102C94.1983 37.076 93.8598 38.072 93.8067 39.5577C93.7918 39.9758 93.7836 40.3134 93.7868 40.6965C93.7935 41.0792 93.8104 41.4157 93.8359 41.8313C93.9263 43.3004 94.2863 44.2767 95.013 45.0215C95.7821 45.7222 96.7811 46.0609 98.2755 46.1306C98.6975 46.1502 99.0388 46.1624 99.4265 46.1641C99.8144 46.1624 100.156 46.1502 100.578 46.1305C102.077 46.0607 103.078 45.7208 103.846 45.0172C104.572 44.2684 104.926 43.2868 105.004 41.8105C105.026 41.3927 105.04 41.0545 105.043 40.67C105.042 40.2849 105.031 39.9457 105.012 39.5258C104.945 38.0333 104.594 37.0353 103.863 36.2721ZM102.589 41.3852C102.545 42.3259 102.344 42.9513 101.932 43.4285C101.495 43.8768 100.927 44.0934 100.076 44.1379C99.8356 44.1504 99.6416 44.1582 99.4213 44.1593C99.2011 44.1582 99.0072 44.1504 98.7676 44.1379C97.9188 44.0935 97.3514 43.8777 96.9146 43.4312C96.5019 42.9567 96.2974 42.3346 96.2461 41.3985C96.2316 41.1337 96.222 40.9193 96.2182 40.6754C96.2164 40.4313 96.221 40.2162 96.2295 39.9498C96.2596 39.0031 96.4519 38.3685 96.8594 37.8805C97.2937 37.4191 97.8662 37.1935 98.7281 37.1431C98.9715 37.1289 99.1684 37.1198 99.3922 37.1174C99.6162 37.1174 99.8133 37.1244 100.057 37.136C100.922 37.1773 101.5 37.3976 101.941 37.8563C102.356 38.3425 102.555 38.9785 102.594 39.9294C102.604 40.197 102.611 40.4132 102.611 40.6585C102.609 40.9035 102.601 41.119 102.589 41.3852Z" fill="#6F6F6E"/>
<path d="M70.8497 35.2047H67.7684C67.7176 35.2047 67.6695 35.227 67.637 35.2655L64.7747 38.7908C64.7405 38.8331 64.6752 38.8331 64.641 38.7908L61.9294 35.2655C61.8969 35.227 61.8488 35.2047 61.798 35.2047H58.7167C58.6443 35.2047 58.6047 35.2879 58.651 35.3428L62.9907 40.5056C63.017 40.5368 63.017 40.5821 62.9907 40.6133L58.7264 45.8352C58.6801 45.8901 58.7197 45.9733 58.7921 45.9733H61.8733C61.9241 45.9733 61.9723 45.9511 62.0048 45.9125L64.7158 42.4793C64.75 42.4359 64.8164 42.4359 64.8506 42.4793L67.5616 45.9125C67.5941 45.9511 67.6423 45.9733 67.6931 45.9733H70.7743C70.8467 45.9733 70.8863 45.8901 70.84 45.8352L66.5757 40.6133C66.5494 40.5821 66.5494 40.5368 66.5757 40.5056L70.9154 35.3428C70.9617 35.2879 70.9221 35.2047 70.8497 35.2047Z" fill="#6F6F6E"/>
<path d="M76.4855 35.2047H74.0882C74.041 35.2047 74.0027 35.2424 74.0027 35.289V45.8891C74.0027 45.9356 74.041 45.9733 74.0882 45.9733H76.4855C76.5327 45.9733 76.571 45.9356 76.571 45.8891V35.289C76.571 35.2424 76.5327 35.2047 76.4855 35.2047Z" fill="#6F6F6E"/>
<path d="M130.915 35.2047H128.517C128.47 35.2047 128.432 35.2424 128.432 35.289V45.8891C128.432 45.9356 128.47 45.9733 128.517 45.9733H130.915C130.962 45.9733 131 45.9356 131 45.8891V35.289C131 35.2424 130.962 35.2047 130.915 35.2047Z" fill="#6F6F6E"/>
<path d="M85.982 34.8141C85.982 34.8141 83.1531 34.6152 81.07 35.4995C81.0075 35.526 80.9677 35.5874 80.9677 35.6544V37.7863C80.9677 37.8455 81.0278 37.8855 81.0839 37.8643C83.2868 37.0319 85.6613 37.131 85.6613 37.131C87.3889 37.131 88.0704 37.4738 88.2039 38.9973C88.2084 39.049 88.1647 39.0924 88.1123 39.0883C87.6416 39.0512 85.8037 38.9246 83.8798 39.0389C81.9679 39.1524 79.9541 40.1935 79.9541 42.4403C79.9541 44.9001 81.9645 46.1641 83.8798 46.1641H86.7996C88.8855 46.1641 90.6644 44.8414 90.8942 42.5503C90.9638 41.856 90.8807 39.6494 90.8807 39.6494C90.8807 36.6326 88.8317 34.8141 85.982 34.8141ZM88.2294 42.5147C88.2294 43.4249 87.644 44.0702 86.5735 44.0702H84.0305C83.7674 44.0702 82.4547 44.0024 82.4547 42.6633C82.4547 41.1657 83.7118 41.1193 84.0305 41.0898C85.6013 40.9448 87.721 41.1062 88.1513 41.1419C88.1955 41.1456 88.2294 41.1821 88.2294 41.2259V42.5147Z" fill="#6F6F6E"/>
</svg>
